<?xml version="1.0" encoding="UTF-8"?>
<svg id="Layer_2" data-name="Layer 2" xmlns="http://www.w3.org/2000/svg" viewBox="0 0 221.67 308.24">
  <defs>
    <style>
      .cls-1 {
        stroke-miterlimit: 10;
        stroke-width: 1px;
      }

      .cls-1, .cls-2 {
        stroke: #000;
      }

      .cls-1, .cls-2, .cls-3 {
        fill: #fff;
      }

      .cls-2 {
        stroke-miterlimit: 10;
        stroke-width: 1px;
      }

      .cls-4 {
        fill: #000;
      }

      .cls-4, .cls-5, .cls-6, .cls-3 {
        stroke-width: 0px;
      }

      .cls-5 {
        fill: #a7a9ac;
      }

      .cls-6 {
        fill: #f8c2d9;
      }
    </style>
  </defs>
  <g id="Layer_1-2" data-name="Layer 1">
    <g>
      <path class="cls-3" d="M167.41,126.33c8.19-16.38,19.19-31.21,23.12-31.21h.04c.17,0,.58.01.96.88,2.19,5.03-2.57,26.57-13.07,59.08-.06.2-.07.4-.03.6,1.15,5.07,1.84,10.2,2.07,15.27.16,3.58.35,7.41.71,11.27.91,9.46,1.93,19.43,2.98,29.35s2.13,19.78,3.15,29.03c1.17,10.66,2.28,20.74,3.19,29.54.13,1.26.37,2.56.62,3.94.92,4.96,1.86,10.09-1.98,14.23-7.36,7.93-30.6,10.27-71.05,7.14-9.14-.7-17.09,2.26-24.78,5.13-8.56,3.19-16.65,6.21-26.37,4.68-13.5-2.12-19.9-3.57-22.07-6.59-.89-1.23-1.1-2.87-.67-5.16.25-1.3.02-2.42-.69-3.32-1.75-2.22-5.8-2.54-10.49-2.9-6.96-.54-11.91-1.23-12.18-5.14-.09-1.35.31-4.64.76-8.46.59-4.95,1.32-11.1,1.34-15.98.04-7.82.13-8.64.33-10.43.2-1.81.49-4.54.95-15.49.02-.4-.18-.79-.52-1.01-.2-.14-.43-.2-.67-.2-.16,0-.33.03-.48.1-5.12,2.2-12.82,3.55-17.01,1.72-1.46-.63-2.37-1.58-2.81-2.88-.41-1.23.01-6.73,22.55-26.16.24-.21.38-.5.4-.81l.17-2.78c.33-5.24.62-9.64.83-12.87l.22-3.33c.12-1.82.17-3.65.2-5.22.57-22.81,8.61-44.13,22.65-60.05,14.01-15.89,32.48-24.64,52-24.64,25.03,0,48.8,12.27,63.58,32.83.24.34.65.53,1.07.49.42-.03.79-.28.98-.65Z"/>
      <path class="cls-4" d="M20.93,247.03c.18-1.67.45-4.15.86-13.53-5.43,1.97-12.6,3.03-17.19,1.03-2.08-.91-3.46-2.35-4.11-4.29-.54-1.64-2.21-6.63,22.87-28.31l.14-2.3c.33-5.24.62-9.65.83-12.88l.22-3.33c.12-1.78.16-3.58.2-5.12.58-23.35,8.83-45.19,23.22-61.52,14.47-16.41,33.58-25.45,53.81-25.45,25.16,0,49.08,12.02,64.37,32.25,5.03-9.64,17.58-30.95,24.48-30.79.96.02,2.28.44,3.09,2.3,3.13,7.17-5.26,36.73-12.89,60.4,1.13,5.09,1.82,10.26,2.05,15.35.16,3.56.35,7.36.71,11.16,1.8,18.91,4.09,39.87,6.12,58.35,1.17,10.67,2.28,20.75,3.19,29.56.12,1.17.36,2.43.6,3.76.92,5,2.06,11.22-2.57,16.2-8,8.62-31.19,11.13-73,7.9-8.6-.67-15.96,2.08-23.74,4.98-6.93,2.59-14.04,5.24-22.06,5.24-1.8,0-3.64-.13-5.54-.43-14.47-2.27-20.95-3.82-23.64-7.55-1.29-1.78-1.62-3.98-1.06-6.93.16-.84-.06-1.25-.25-1.48-1.09-1.39-5-1.7-8.78-1.99-6.21-.48-13.94-1.08-14.36-7.3-.11-1.56.28-4.8.76-8.89.58-4.89,1.3-10.97,1.33-15.72.04-7.94.13-8.79.34-10.67ZM23.3,247.28c-.2,1.79-.29,2.61-.33,10.43-.02,4.88-.75,11.03-1.34,15.98-.45,3.82-.85,7.11-.76,8.46.27,3.91,5.22,4.6,12.18,5.14,4.69.36,8.74.68,10.49,2.9.71.9.94,2.02.69,3.32-.43,2.29-.22,3.93.67,5.16,2.17,3.02,8.57,4.47,22.07,6.59,9.72,1.53,17.81-1.49,26.37-4.68,7.69-2.87,15.64-5.83,24.78-5.13,40.45,3.13,63.69.79,71.05-7.14,3.84-4.14,2.9-9.27,1.98-14.23-.25-1.38-.49-2.68-.62-3.94-.91-8.8-2.02-18.88-3.19-29.54-1.02-9.25-2.1-19.11-3.15-29.03s-2.07-19.89-2.98-29.35c-.36-3.86-.55-7.69-.71-11.27-.23-5.07-.92-10.2-2.07-15.27-.04-.2-.03-.4.03-.6,10.5-32.51,15.26-54.05,13.07-59.08-.38-.87-.79-.88-.96-.88h-.04c-3.93,0-14.93,14.83-23.12,31.21-.19.37-.56.62-.98.65-.42.04-.83-.15-1.07-.49-14.78-20.56-38.55-32.83-63.58-32.83-19.52,0-37.99,8.75-52,24.64-14.04,15.92-22.08,37.24-22.65,60.05-.03,1.57-.08,3.4-.2,5.22l-.22,3.33c-.21,3.23-.5,7.63-.83,12.87l-.17,2.78c-.02.31-.16.6-.4.81-22.54,19.43-22.96,24.93-22.55,26.16.44,1.3,1.35,2.25,2.81,2.88,4.19,1.83,11.89.48,17.01-1.72.15-.07.32-.1.48-.1.24,0,.47.06.67.2.34.22.54.61.52,1.01-.46,10.95-.75,13.68-.95,15.49Z"/>
    </g>
    <ellipse class="cls-4" cx="68.98" cy="164.54" rx="28.69" ry="20.62" transform="translate(-105.83 200.19) rotate(-78.78)"/>
    <ellipse class="cls-4" cx="140.55" cy="149.88" rx="19.41" ry="27.01" transform="translate(-35.21 43.46) rotate(-15.64)"/>
    <ellipse class="cls-1" cx="70.16" cy="161.52" rx="22.02" ry="16.65" transform="translate(-100.22 206.02) rotate(-81.16)"/>
    <ellipse class="cls-2" cx="139.23" cy="147.14" rx="15.67" ry="20.73" transform="translate(-30.05 35.87) rotate(-13.26)"/>
    <path class="cls-4" d="M97.44,206.55c.36,2.95,10.41,2.76,12.54-2.58,1.06-2.64,5.83-19.18-.81-17.64s-12.57,13.53-11.73,20.22Z"/>
    <g>
      <path class="cls-5" d="M210.44,140.86c-.2,0-.39,0-.58-.02-4.28-.38-7.31-2.71-8.76-6.72-3.01-8.35-6.01-16.71-9.02-25.07l-5.83-16.23c-3.45-9.59-6.9-19.18-10.33-28.78-.01-.03-.02-.06-.03-.08-.02,0-.05,0-.09-.01-9.42-1.25-15.85-6.31-19.11-15.03-2.51-6.7-4.95-13.55-7.3-20.18-.97-2.74-1.95-5.48-2.93-8.21-1.05-2.94.31-6.01,3.17-7.15.67-.27,1.36-.4,2.06-.4,2.23,0,4.2,1.32,5.14,3.45.11.25.2.51.3.77l2.94,8.19c2.24,6.26,4.48,12.51,6.76,18.76,1.68,4.61,4.74,7.39,9.36,8.51.09.02.17.04.26.06l-13.68-38.07c-.96-2.66.07-5.46,2.5-6.81.85-.47,1.8-.72,2.75-.72,1.71,0,3.28.77,4.31,2.11.44.58.81,1.29,1.13,2.17,3.8,10.55,7.6,21.1,11.39,31.65l2.11,5.88c.05-.06.1-.12.14-.18,2.81-3.73,3.46-7.83,1.94-12.19-2.22-6.37-4.55-12.82-6.81-19.06-1.04-2.89-2.09-5.78-3.13-8.67-.6-1.69-.44-3.49.47-4.94.89-1.44,2.41-2.38,4.16-2.59.22-.03.43-.04.64-.04,2.29,0,4.33,1.46,5.21,3.72.28.73.54,1.46.8,2.19l.33.93,2.73,7.59c2.11,5.84,4.22,11.69,6.29,17.55,2.73,7.72,1.64,15.06-3.25,21.82-.59.81-1.27,1.52-1.93,2.2.56,1.51,1.08,2.97,1.61,4.44l23.55,65.54c1.48,4.11.64,7.88-2.43,10.92-.51.51-1.08.89-1.62,1.26-.22.15-.44.29-.65.45l-.15.11-1.9.68-.24.03c-.26.02-.52.04-.79.07-.47.05-.96.1-1.47.1Z"/>
      <path class="cls-4" d="M184.36,2.5c1.76,0,3.34,1.11,4.04,2.92.4,1.02.75,2.06,1.12,3.1,3.01,8.37,6.05,16.74,9.02,25.13,2.62,7.41,1.51,14.32-3.08,20.67-.55.77-1.23,1.46-1.89,2.14-.35.36-.42.66-.24,1.13.77,2.06,1.5,4.13,2.24,6.19,7.65,21.29,15.3,42.58,22.95,63.87,1.31,3.66.62,6.88-2.14,9.61-.62.62-1.42,1.06-2.13,1.58-.54.2-1.09.39-1.63.59-.73.05-1.46.17-2.18.17-.16,0-.32,0-.47-.02-3.79-.34-6.4-2.3-7.69-5.89-4.23-11.71-8.43-23.44-12.64-35.15-4.18-11.64-8.37-23.27-12.53-34.92-.21-.6-.5-.83-1.13-.91-8.83-1.17-14.99-5.89-18.11-14.23-3.52-9.42-6.83-18.91-10.23-28.38-.83-2.31.23-4.68,2.45-5.56.53-.21,1.07-.31,1.6-.31,1.68,0,3.25,1,4,2.7.13.29.23.59.33.89,3.21,8.92,6.39,17.85,9.63,26.75,1.77,4.87,5.14,8.06,10.24,9.3.74.18,1.52.19,2.41.3-.17-.48-.29-.81-.41-1.13-4.65-12.94-9.3-25.88-13.95-38.83-.75-2.08.05-4.25,1.93-5.3.68-.38,1.42-.56,2.15-.56,1.27,0,2.5.56,3.31,1.62.41.54.72,1.19.95,1.83,4.6,12.75,9.18,25.5,13.76,38.25.12.32.23.65.42,1.16.6-.63,1.19-1.13,1.64-1.73,3.06-4.07,3.78-8.59,2.12-13.35-3.24-9.27-6.62-18.5-9.94-27.74-.99-2.77.71-5.53,3.59-5.87.17-.02.33-.03.5-.03M184.36,0h0c-.26,0-.53.02-.79.05-2.13.25-3.98,1.41-5.08,3.17-1.1,1.78-1.31,3.98-.58,6.02,1.04,2.89,2.08,5.79,3.13,8.68,2.25,6.24,4.58,12.68,6.8,19.04,1.15,3.28.96,6.3-.57,9.17l-1.21-3.37c-3.81-10.6-7.62-21.21-11.44-31.81-.36-1-.79-1.82-1.31-2.5-1.26-1.65-3.19-2.6-5.3-2.6-1.17,0-2.33.3-3.36.88-2.97,1.65-4.23,5.07-3.06,8.33,3.49,9.71,6.97,19.41,10.46,29.12l2.37,6.59c-3.05-1.28-5.17-3.6-6.42-7.06-2.27-6.23-4.54-12.59-6.75-18.73-.96-2.67-1.92-5.34-2.88-8.01l-.07-.19c-.09-.26-.2-.56-.33-.87-1.12-2.55-3.59-4.2-6.29-4.2-.86,0-1.71.16-2.53.49-3.5,1.39-5.17,5.14-3.88,8.73.99,2.75,1.97,5.5,2.94,8.25,2.35,6.62,4.79,13.46,7.3,20.16,3.31,8.85,10.03,14.28,19.46,15.74,3.39,9.47,6.78,18.92,10.18,28.37l2.13,5.92,3.5,9.74c3.04,8.47,6.09,16.95,9.14,25.42,1.62,4.5,5.02,7.11,9.82,7.54.23.02.46.03.7.03.58,0,1.12-.06,1.6-.11.25-.03.49-.05.74-.07l.35-.02.33-.12.6-.21,1.04-.37.34-.12.29-.21c.2-.15.41-.28.61-.42.57-.38,1.21-.81,1.8-1.4,3.44-3.4,4.38-7.63,2.73-12.23l-17.18-47.8-5.77-16.07-.59-1.65c-.44-1.22-.89-2.48-1.35-3.73.52-.55,1.03-1.12,1.5-1.77,5.14-7.11,6.29-14.84,3.41-22.97-2.07-5.86-4.22-11.81-6.29-17.56-.91-2.53-1.82-5.05-2.73-7.58-.11-.31-.22-.61-.33-.92-.26-.73-.52-1.48-.82-2.24-1.06-2.74-3.57-4.52-6.37-4.52h0Z"/>
    </g>
    <ellipse class="cls-6" cx="148.4" cy="190.97" rx="13.65" ry="6.5" transform="translate(-3.92 3.11) rotate(-1.19)"/>
    <ellipse class="cls-6" cx="64.63" cy="205.16" rx="13.65" ry="6.5" transform="translate(-4.24 1.38) rotate(-1.19)"/>
  </g>
</svg>