<?xml version="1.0" encoding="UTF-8"?>
<svg id="Layer_2" data-name="Layer 2" xmlns="http://www.w3.org/2000/svg" viewBox="0 0 324.5 254.35">
  <defs>
    <style>
      .cls-1 {
        fill: none;
      }

      .cls-1, .cls-2, .cls-3, .cls-4 {
        stroke-miterlimit: 10;
      }

      .cls-1, .cls-3 {
        stroke: #000;
      }

      .cls-1, .cls-3, .cls-4 {
        stroke-width: 3px;
      }

      .cls-2 {
        stroke-width: 5px;
      }

      .cls-2, .cls-3 {
        stroke-linecap: round;
      }

      .cls-2, .cls-3, .cls-4 {
        fill: #fff;
      }

      .cls-2, .cls-4 {
        stroke: #231f20;
      }

      .cls-5 {
        fill: #f8c2d9;
      }

      .cls-5, .cls-6, .cls-7, .cls-8 {
        stroke-width: 0px;
      }

      .cls-6 {
        fill: #231f20;
      }

      .cls-7 {
        fill: #bec0c2;
      }

      .cls-8 {
        fill: #333132;
      }
    </style>
  </defs>
  <g id="Layer_1-2" data-name="Layer 1">
    <path class="cls-4" d="m51.75,234.18c4.74,2.18,7.26-1.8,17.37.04,11.45,2.08,13.69,8.96,24.99,13.36,9.34,3.63,17.51,2.66,27.36,1.58,21.17-2.32,24.52-10.95,37.35-8.47,12.68,2.44,12.75,11.52,23.77,12.14,13.33.75,16.66-12.35,32.43-14.21,15.16-1.79,22.25,9.12,28.49,6.18,6.68-3.14,9.62-20.84-6.83-84.79,7.86-7.51,24.64-25.61,31.67-54.23,2.68-10.93,8.69-35.18-2-58.25C250.81,14.02,206.88-2.33,172.17,2.26c-49.81,6.59-78.29,56.01-96.34,87.31-10.89,18.88-16.12,34.36-19.47,44.44-13.6,40.94-19.79,93.18-4.61,100.17Z"/>
    <path class="cls-6" d="m175.71,112.35c.64.64,1.68.64,2.32,0l16.46-16.46,3.62,15.67c.17.76.85,1.27,1.59,1.27.12,0,.25-.01.37-.04.88-.2,1.43-1.08,1.23-1.96l-4.28-18.55c-.13-.58-.57-1.04-1.14-1.21-.57-.16-1.19,0-1.61.42l-18.55,18.55c-.64.64-.64,1.68,0,2.32Z"/>
    <ellipse class="cls-5" cx="136.58" cy="85.64" rx="18.3" ry="10.6"/>
    <ellipse class="cls-5" cx="237.14" cy="90.42" rx="15.44" ry="8.94"/>
    <g>
      <g>
        <path class="cls-8" d="m286.69,114.33c20.05,0,36.31,27.09,36.31,60.51s-16.26,60.5-36.31,60.5h-17c20.05,0,36.31-27.09,36.31-60.5s-16.26-60.51-36.31-60.51h17Z"/>
        <path class="cls-7" d="m278.18,179.47c0,2.67-1.08,5.1-2.84,6.86-1.76,1.75-4.18,2.84-6.86,2.84H90.09c.68-4.59,1.03-9.39,1.03-14.33,0-1.71-.04-3.4-.13-5.07h177.49c5.36,0,9.7,4.34,9.7,9.7Z"/>
        <path class="cls-8" d="m269.69,114.33c20.05,0,36.31,27.09,36.31,60.51s-16.26,60.5-36.31,60.5c-17.09,0-31.42-19.67-35.28-46.17h34.07c2.68,0,5.1-1.09,6.86-2.84,1.76-1.76,2.84-4.19,2.84-6.86,0-5.36-4.34-9.7-9.7-9.7h-34.97c1.54-31.05,17.15-55.44,36.18-55.44Z"/>
        <path class="cls-8" d="m90.99,169.77c.09,1.67.13,3.36.13,5.07,0,4.94-.35,9.74-1.03,14.33-3.86,26.5-18.19,46.17-35.28,46.17h-17c20.05,0,36.31-27.09,36.31-60.5s-16.26-60.51-36.31-60.51h17c19.03,0,34.64,24.39,36.18,55.44Z"/>
        <path class="cls-7" d="m45.74,179.38c.04,5.8-3.89,9.3-4.46,9.79h-5.48c-5.35,0-9.7-4.35-9.7-9.7l.31-2.43c.04-.15.08-.3.13-.46l.32-.89c.13-.29.26-.57.41-.85l1.67-2.23c.22-.22.45-.43.69-.62.24-.2.49-.39.75-.56.25-.17.52-.33.79-.49h0c.27-.15.56-.28.84-.41.31-.13.63-.24.95-.33.12-.05.24-.08.37-.11.78-.21,1.61-.32,2.46-.32h5.48c.58.49,4.42,3.91,4.46,9.61Z"/>
        <path class="cls-8" d="m37.81,114.33c20.05,0,36.31,27.09,36.31,60.51s-16.26,60.5-36.31,60.5S1.5,208.25,1.5,174.84s16.26-60.51,36.31-60.51Zm-11.71,65.14c0,5.35,4.35,9.7,9.7,9.7h5.48c.57-.49,4.5-3.99,4.46-9.79-.04-5.7-3.88-9.12-4.46-9.61h-5.48c-.85,0-1.68.11-2.46.32-.12.02-.25.06-.37.11-.32.09-.64.2-.95.33-.29.12-.57.26-.84.41h0c-.27.15-.54.31-.79.49-.26.17-.51.36-.75.56-.24.19-.47.4-.69.62l-1.67,2.23c-.15.28-.29.56-.41.85l-.32.89c-.05.15-.1.31-.13.46l-.31,2.43Z"/>
      </g>
      <g>
        <path class="cls-1" d="m32.97,170.2c.12-.05.25-.09.37-.11"/>
        <path class="cls-1" d="m31.18,170.94c.27-.15.55-.29.84-.41"/>
        <path class="cls-1" d="m28.94,172.61c.22-.22.45-.43.69-.62.24-.2.49-.39.75-.56.25-.18.52-.34.79-.49"/>
        <path class="cls-1" d="m26.86,175.69c.12-.29.26-.57.41-.85"/>
        <path class="cls-1" d="m26.41,177.04c.03-.15.08-.31.13-.46"/>
        <path class="cls-1" d="m90.99,169.77h177.49c5.36,0,9.7,4.34,9.7,9.7,0,2.67-1.08,5.1-2.84,6.86-1.76,1.75-4.18,2.84-6.86,2.84H90.09"/>
        <path class="cls-1" d="m41.28,189.17h-5.48c-5.35,0-9.7-4.35-9.7-9.7l.31-2.43c.04-.15.08-.3.13-.46l.32-.89c.13-.29.26-.57.41-.85l1.67-2.23c.22-.22.45-.43.69-.62.24-.2.49-.39.75-.56.25-.17.52-.33.79-.49h0c.27-.15.56-.28.84-.41.31-.13.63-.24.95-.33.12-.05.24-.08.37-.11.78-.21,1.61-.32,2.46-.32h5.48c.58.49,4.42,3.91,4.46,9.61.04,5.8-3.89,9.3-4.46,9.79Z"/>
        <line class="cls-1" x1="37.81" y1="114.33" x2="54.81" y2="114.33"/>
        <line class="cls-1" x1="37.81" y1="235.34" x2="54.81" y2="235.34"/>
        <path class="cls-1" d="m54.81,235.34c17.09,0,31.42-19.67,35.28-46.17.68-4.59,1.03-9.39,1.03-14.33,0-1.71-.04-3.4-.13-5.07-1.54-31.05-17.15-55.44-36.18-55.44"/>
        <path class="cls-1" d="m37.81,114.33c20.05,0,36.31,27.09,36.31,60.51s-16.26,60.5-36.31,60.5S1.5,208.25,1.5,174.84s16.26-60.51,36.31-60.51Z"/>
        <line class="cls-1" x1="269.69" y1="114.33" x2="286.69" y2="114.33"/>
        <line class="cls-1" x1="269.69" y1="235.34" x2="286.69" y2="235.34"/>
        <path class="cls-1" d="m286.69,235.34c20.05,0,36.31-27.09,36.31-60.5s-16.26-60.51-36.31-60.51"/>
        <path class="cls-1" d="m233.51,169.77c1.54-31.05,17.15-55.44,36.18-55.44,20.05,0,36.31,27.09,36.31,60.51s-16.26,60.5-36.31,60.5c-17.09,0-31.42-19.67-35.28-46.17"/>
      </g>
    </g>
    <path class="cls-3" d="m96.18,130.83c-1.64,21.91,3.53,39.8,11.29,48.34,6.61,7.28,15.42,10.39,15.42,10.39,4.01,1.41,6.86,2.42,8.22,1.13,3.66-3.46-10.27-17.04-7.69-32.47,1.07-6.42,4.67-11.14,7.18-13.87"/>
    <path class="cls-3" d="m231.86,139.48c-.16,8.38-1.7,33.47-19.5,46.34-6.72,4.86-15.71,7.93-17.75,5.54-2.85-3.33,10.13-14.42,8.46-30.18-.44-4.18-1.79-7.52-2.89-9.71"/>
    <line class="cls-2" x1="137.78" y1="58.66" x2="176.47" y2="78.67"/>
    <line class="cls-2" x1="213.58" y1="80.02" x2="244.28" y2="64.02"/>
  </g>
</svg>
