<?xml version="1.0" encoding="UTF-8"?>
<svg id="Layer_2" data-name="Layer 2" xmlns="http://www.w3.org/2000/svg" viewBox="0 0 306.59 261.56">
  <defs>
    <style>
      .cls-1 {
        fill: #3d3d3d;
      }

      .cls-1, .cls-2, .cls-3, .cls-4, .cls-5, .cls-6 {
        stroke-width: 0px;
      }

      .cls-2 {
        fill: none;
      }

      .cls-3 {
        fill: #a7a9ac;
      }

      .cls-4 {
        fill: #f8c2d9;
      }

      .cls-5 {
        fill: #fff;
      }

      .cls-6 {
        fill: #231f20;
      }
    </style>
  </defs>
  <g id="Layer_1-2" data-name="Layer 1">
    <g>
      <path class="cls-6" d="M270.34,142.32c19.85,0,36,26.64,36,59.39s-16.15,59.39-36,59.39c-2.53,0-5.07-.46-7.58-1.34-2.5.87-5.03,1.33-7.55,1.33-11.93,0-22.54-9.47-29.1-24.29.02.41.04.73.06.9.42,4.78.58,13.46-1.5,15.58-3.78,3.84-7.98.87-11.69-1.75-3.32-2.34-6.75-4.76-10.48-3.93-4.73,1.06-7.76,2.96-11.27,5.15-4.92,3.08-10.49,6.57-22.02,8.15-2.09.28-3.88.41-5.45.41-4.24,0-6.92-.9-9.9-1.89-4.19-1.39-8.94-2.97-20.06-2.41-3.49.17-6.36.79-9.4,1.44-7.79,1.67-16.61,3.56-39.64-.67-.71-.13-1.45-.29-2.26-.47-3.29-.71-7.79-1.68-15.94-1.78-4.62,3.57-9.76,5.57-15.19,5.57-.71,0-1.42-.04-2.14-.11h-10.84c-.72.07-1.43.11-2.14.11-19.85,0-36-26.64-36-59.39s16.15-59.39,36-59.39c.5,0,1,.04,1.5.07h5.39c2.11-10.77,3.94-19.95,5.1-25.79.75-3.74,1.29-6.45,1.33-6.7,4.97-30.12,20.95-58.24,45-79.18C116.82,11.36,143.46.25,167.67.25s48.92,12.1,65.74,32.38c16.8,20.25,23.46,45.23,18.75,70.34-5.55,29.6-19.69,48.33-27.29,58.39-2.25,2.98-4.57,6.05-4.54,6.9.36,3.95.76,8.09,1.19,12.52,5.18-22.75,18.56-38.46,33.7-38.46.5,0,1,.04,1.5.07h12.12c.5-.03,1-.07,1.5-.07ZM303.34,201.71c0-31.09-14.8-56.39-33-56.39-1.08,0-2.17.09-3.25.28,14.38,8.17,24.13,30.4,24.13,56.11s-9.74,47.94-24.13,56.11c1.08.19,2.17.28,3.25.28,18.2,0,33-25.3,33-56.39ZM262.34,256.75c15-5.7,25.88-28.83,25.88-55.04,0-13.13-2.73-25.48-7.34-35.26s-11.1-16.99-18.63-19.82c-.2-.07-.39-.12-.59-.19-2.14-.73-4.3-1.12-6.44-1.12-15.12,0-28.39,17.87-32.03,42.8-.04.33-.09.66-.13.99h27.26c5.52,0,10.01,4.49,10.01,10.01s-4.49,10.01-10.01,10.01h-27.81c.01.15.02.31.03.47,2.28,27.35,16.39,48.49,32.67,48.49,2.17,0,4.36-.4,6.53-1.15.17-.06.34-.1.5-.16.03-.02.07-.02.1-.03ZM257.33,199.12c0-3.87-3.14-7.01-7.01-7.01h-38.32c-.83,3.36-3.48,10.3-4.94,14.02h43.26c3.87,0,7.01-3.14,7.01-7.01ZM249.7,102.51c4.57-24.37-1.89-48.62-18.21-68.29-16.36-19.7-40.21-31.47-63.82-31.47s-49.66,10.88-71.46,29.86c-23.61,20.55-39.3,48.15-44.18,77.69-.04.28-.44,2.29-1.34,6.79-1.14,5.75-2.93,14.74-5,25.3h4.18c.5-.03,1-.07,1.5-.07,6.36,0,12.33,2.74,17.52,7.53,8.87,8.2,15.44,22.4,17.66,39.25h4.98c-.62-2.55-1.25-5.32-1.89-8.38-2.13-10.18-3.73-20.41-4.64-26.7-.55-3.8-.85-6.17-.86-6.23-.1-.83.48-1.58,1.3-1.68s1.58.48,1.68,1.3c.3,2.4.63,4.88,1,7.42,1.78,12.34,4.32,25.98,7.18,36.88,1.99,5.96,4.79,14.23,5.22,15.16.12.2.18.44.19.67,1.49,2.96,2.98,4.74,4.44,4.86,1.51.11,3.08-.59,4.7-2.08.9-.83,1.77-1.88,2.61-3.09.08-.32.27-.59.53-.79.48-.76.96-1.57,1.42-2.43,1.52-3.33,3.54-8.81,5-13.09,1.29-4.85,2.05-9.7,2.05-13.55,0-.83.67-1.5,1.5-1.5s1.5.67,1.5,1.5c0,3.18-.54,7.34-1.54,11.73h60.13c-.66-2.28-1.05-3.77-1.05-3.8-.21-.8.28-1.62,1.08-1.82.8-.21,1.62.28,1.82,1.08,5.01,19.69,10.7,28.05,13.12,28.69.51.14,1.16-.3,1.61-.7,3.62-3.16,7.56-13.58,9.72-26.38,1.63-9.62,2.25-20.59.97-30.82-.1-.83.48-1.58,1.3-1.68.83-.1,1.58.48,1.68,1.3,1.23,9.88.86,21.06-1.03,31.96-.12.73-.27,1.45-.41,2.18h7.96c0-.08,0-.15-.02-.23-.75-7.51-1.39-14.19-1.96-20.39-.17-1.74,1.57-4.05,5.04-8.64,7.47-9.9,21.38-28.32,26.82-57.34ZM222.89,251.52c.76-.77,1.43-6.33.78-13.61-.04-.52-.1-2-.18-3.86-.07-1.61-.14-3.4-.22-4.8-.03-.09-.06-.17-.08-.26-1.89-6.05-3.16-12.74-3.69-19.86h-13.88c-1.29,2.55-2.66,4.49-4.02,5.68-1.3,1.14-2.46,1.47-3.38,1.47-.37,0-.7-.06-.98-.13-2.17-.58-4.36-2.9-6.61-7.03h-75.83c-.92,1.3-1.89,2.45-2.91,3.4-2.08,1.92-4.23,2.89-6.4,2.89-.19,0-.39-.01-.58-.02-1.78-.15-4.05-1.23-6.7-6.28h-11.13c-1.42,18.8-8.19,34.88-17.7,43.99,1.14.05,2.2.11,3.2.19,4.8.36,7.96,1.04,10.45,1.58.78.17,1.5.32,2.19.45,22.53,4.14,31.1,2.3,38.66.68,3.14-.67,6.1-1.3,9.8-1.49,11.58-.58,16.57,1.08,20.97,2.54,3.94,1.31,7.05,2.35,14.22,1.37,11-1.5,16.1-4.7,21.03-7.79,3.55-2.22,6.9-4.32,12.06-5.47,4.81-1.07,8.87,1.79,12.46,4.33,4.3,3.03,6.4,4.14,8.47,2.03ZM188.49,206.12l-5.49-14.02h-60.82c-1.03,3.01-3.46,9.95-5.46,14.02h71.77ZM87.95,206.11h9.09c-.93-2.58-2.53-7.26-4.77-14.01h-5.31l.99,14.01ZM84.37,201.71c0-31.09-14.8-56.39-33-56.39-1.08,0-2.17.09-3.25.28,14.38,8.17,24.13,30.4,24.13,56.11s-9.74,47.94-24.13,56.11c1.08.19,2.17.28,3.25.28,18.2,0,33-25.3,33-56.39ZM69.25,201.71c0-13.13-2.73-25.48-7.34-35.26s-11.11-16.99-18.63-19.82c-2.33-.87-4.69-1.31-7.03-1.31-18.2,0-33,25.3-33,56.39s14.8,56.39,33,56.39c2.34,0,4.7-.44,7.03-1.31,15.05-5.65,25.97-28.82,25.97-55.08Z"/>
      <path class="cls-1" d="M288.22,201.71c0,26.21-10.88,49.34-25.88,55.04-.03.01-.07.01-.1.03-.16.06-.33.1-.5.16-2.17.75-4.36,1.15-6.53,1.15-16.28,0-30.39-21.14-32.67-48.49-.01-.16-.02-.32-.03-.47h27.81c5.52,0,10.01-4.49,10.01-10.01s-4.49-10.01-10.01-10.01h-27.26c.04-.33.09-.66.13-.99,3.64-24.93,16.91-42.8,32.03-42.8,2.14,0,4.3.39,6.44,1.12.2.07.39.12.59.19,7.53,2.83,14.02,10.04,18.63,19.82s7.34,22.13,7.34,35.26Z"/>
      <path class="cls-5" d="M231.49,34.22c16.32,19.67,22.78,43.92,18.21,68.29-5.44,29.02-19.35,47.44-26.82,57.34-3.47,4.59-5.21,6.9-5.04,8.64.57,6.2,1.21,12.88,1.96,20.39.01.08.02.15.02.23h-7.96c.14-.73.29-1.45.41-2.18,1.89-10.9,2.26-22.08,1.03-31.96-.1-.82-.85-1.4-1.68-1.3-.82.1-1.4.85-1.3,1.68,1.28,10.23.66,21.2-.97,30.82-2.16,12.8-6.1,23.22-9.72,26.38-.45.4-1.1.84-1.61.7-2.42-.64-8.11-9-13.12-28.69-.2-.8-1.02-1.29-1.82-1.08-.8.2-1.29,1.02-1.08,1.82,0,.03.39,1.52,1.05,3.8h-60.13c1-4.39,1.54-8.55,1.54-11.73,0-.83-.67-1.5-1.5-1.5s-1.5.67-1.5,1.5c0,3.85-.76,8.7-2.05,13.55-1.46,4.28-3.48,9.76-5,13.09-.46.86-.94,1.67-1.42,2.43-.26.2-.45.47-.53.79-.84,1.21-1.71,2.26-2.61,3.09-1.62,1.49-3.19,2.19-4.7,2.08-1.46-.12-2.95-1.9-4.44-4.86-.01-.23-.07-.47-.19-.67-.43-.93-3.23-9.2-5.22-15.16-2.86-10.9-5.4-24.54-7.18-36.88-.37-2.54-.7-5.02-1-7.42-.1-.82-.86-1.4-1.68-1.3s-1.4.85-1.3,1.68c0,.06.31,2.43.86,6.23.91,6.29,2.51,16.52,4.64,26.7.64,3.06,1.27,5.83,1.89,8.38h-4.98c-2.22-16.85-8.79-31.05-17.66-39.25-5.19-4.79-11.16-7.53-17.52-7.53-.5,0-1,.04-1.5.07h-4.18c2.07-10.56,3.86-19.55,5-25.3.9-4.5,1.3-6.51,1.34-6.79,4.88-29.54,20.57-57.14,44.18-77.69C118.01,13.63,144.05,2.75,167.67,2.75s47.46,11.77,63.82,31.47Z"/>
      <path class="cls-5" d="M223.67,237.91c.65,7.28-.02,12.84-.78,13.61-2.07,2.11-4.17,1-8.47-2.03-3.59-2.54-7.65-5.4-12.46-4.33-5.16,1.15-8.51,3.25-12.06,5.47-4.93,3.09-10.03,6.29-21.03,7.79-7.17.98-10.28-.06-14.22-1.37-4.4-1.46-9.39-3.12-20.97-2.54-3.7.19-6.66.82-9.8,1.49-7.56,1.62-16.13,3.46-38.66-.68-.69-.13-1.41-.28-2.19-.45-2.49-.54-5.65-1.22-10.45-1.58-1-.08-2.06-.14-3.2-.19,9.51-9.11,16.28-25.19,17.7-43.99h11.13c2.65,5.05,4.92,6.13,6.7,6.28.19.01.39.02.58.02,2.17,0,4.32-.97,6.4-2.89,1.02-.95,1.99-2.1,2.91-3.4h75.83c2.25,4.13,4.44,6.45,6.61,7.03.28.07.61.13.98.13.92,0,2.08-.33,3.38-1.47,1.36-1.19,2.73-3.13,4.02-5.68h13.88c.53,7.12,1.8,13.81,3.69,19.86.02.09.05.17.08.26.08,1.4.15,3.19.22,4.8.08,1.86.14,3.34.18,3.86Z"/>
      <path class="cls-1" d="M61.91,166.45c4.61,9.78,7.34,22.13,7.34,35.26,0,26.26-10.92,49.43-25.97,55.08-2.33.87-4.69,1.31-7.03,1.31-18.2,0-33-25.3-33-56.39s14.8-56.39,33-56.39c2.34,0,4.7.44,7.03,1.31,7.52,2.83,14.02,10.04,18.63,19.82Z"/>
    </g>
    <path class="cls-2" d="M69.25,201.71c0-26.26-10.92-49.42-25.97-55.08,0,0,0,0,0,0-2.33-.87-4.69-1.31-7.03-1.31-18.2,0-33,25.3-33,56.39s14.8,56.39,33,56.39c2.34,0,4.7-.44,7.03-1.31,0,0,0,0,0,0,15.05-5.65,25.97-28.81,25.97-55.08ZM33.22,208.34c-.04.05-.09.1-.14.15l-.2.17c-.27.28-.65.46-1.07.46h-7.85c-5.52,0-10.01-4.49-10.01-10.01s4.49-10.01,10.01-10.01h7.85c.34,0,.66.11.93.32l.42.33s.07.06.1.09c.09.08,8.64,8.36-.04,18.51Z"/>
    <path class="cls-6" d="M136.91,85.94l35.72,14.37c.24.1.5.15.75.15.79,0,1.54-.47,1.86-1.25.41-1.02-.08-2.19-1.11-2.6l-35.72-14.37c-1.02-.41-2.19.08-2.6,1.11-.41,1.02.08,2.19,1.11,2.6Z"/>
    <path class="cls-6" d="M204.31,102.19c.35,0,.71-.09,1.03-.29l25.26-15.24c.95-.57,1.25-1.8.68-2.75-.57-.95-1.8-1.25-2.75-.68l-25.26,15.24c-.95.57-1.25,1.8-.68,2.75.38.62,1.04.97,1.71.97Z"/>
    <path class="cls-6" d="M171.23,129.79c.59.59,1.54.59,2.12,0l15.08-15.08,3.31,14.35c.16.69.78,1.16,1.46,1.16.11,0,.23-.01.34-.04.81-.19,1.31-.99,1.12-1.8l-3.92-16.99c-.12-.53-.52-.95-1.05-1.1-.52-.15-1.09,0-1.47.38l-16.99,16.99c-.59.59-.59,1.54,0,2.12Z"/>
    <path class="cls-3" d="M23.96,192.1c-3.87,0-7.01,3.14-7.01,7.01s3.14,7.01,7.01,7.01h7.21c6.09-7.42.88-13.23.11-14.02h-7.32Z"/>
    <path class="cls-6" d="M33.26,189.84s-.07-.06-.1-.09l-.42-.33c-.26-.21-.59-.32-.93-.32h-7.85c-5.52,0-10.01,4.49-10.01,10.01s4.49,10.01,10.01,10.01h7.85c.42,0,.8-.17,1.07-.46l.2-.17c.05-.05.1-.09.14-.15,8.68-10.15.13-18.42.04-18.51ZM31.17,206.12h-7.21c-3.87,0-7.01-3.14-7.01-7.01s3.14-7.01,7.01-7.01h7.32c.77.79,5.99,6.6-.11,14.02Z"/>
    <path class="cls-3" d="M122.18,192.1c-1.02,3.01-3.46,9.95-5.45,14.02h71.77l-5.49-14.02h-60.82Z"/>
    <path class="cls-3" d="M86.96,192.1l.99,14.01h9.09c-.93-2.58-2.53-7.26-4.77-14.01h-5.31Z"/>
    <path class="cls-1" d="M51.37,145.32c-1.08,0-2.17.09-3.25.28,14.39,8.17,24.13,30.4,24.13,56.11s-9.74,47.95-24.13,56.11c1.09.19,2.17.28,3.25.28,18.2,0,33-25.3,33-56.39s-14.8-56.39-33-56.39Z"/>
    <path class="cls-1" d="M270.34,145.32c-1.08,0-2.17.09-3.25.28,14.39,8.17,24.13,30.4,24.13,56.11s-9.74,47.95-24.13,56.11c1.09.19,2.17.28,3.25.28,18.2,0,33-25.3,33-56.39s-14.8-56.39-33-56.39Z"/>
    <path class="cls-3" d="M207.06,206.13h43.26c3.87,0,7.01-3.14,7.01-7.01s-3.14-7.01-7.01-7.01h-38.32c-.83,3.36-3.48,10.3-4.94,14.02Z"/>
    <ellipse class="cls-4" cx="131.18" cy="112.33" rx="16.76" ry="9.71"/>
    <ellipse class="cls-4" cx="216.94" cy="116.71" rx="11.22" ry="6.5"/>
  </g>
</svg>